<svg version="1.1" id="Layer_1" xmlns="http://www.w3.org/2000/svg" xmlns:xlink="http://www.w3.org/1999/xlink" x="0px" y="0px"
	 width="100%" viewBox="0 0 256 256" enable-background="new 0 0 256 256" xml:space="preserve">
<path fill="#000000" opacity="1.000000" stroke="none" 
	d="
M257.000000,102.000000 
	C257.000000,153.607452 257.000000,205.214905 257.000000,257.000000 
	C181.645859,257.000000 106.291588,257.000000 30.411087,256.650818 
	C35.326824,249.297104 40.219265,241.766617 46.320053,235.392731 
	C61.051830,220.001495 76.341156,205.143616 91.430199,190.095276 
	C92.595078,188.933548 93.917755,187.919907 95.225151,186.912811 
	C106.416466,178.292191 119.439514,176.528610 133.105591,175.806519 
	C145.255463,175.164536 157.553375,173.892120 169.371094,171.125763 
	C192.485657,165.714951 212.855209,154.344955 230.661636,138.689148 
	C241.706253,128.978485 251.662689,118.297638 255.226013,103.272781 
	C255.352768,102.738342 256.388123,102.419388 257.000000,102.000000 
z"/>
<path fill="#000000" opacity="1.000000" stroke="none" 
	d="
M1.000000,228.000000 
	C1.000000,152.420059 1.000000,76.840118 1.000000,1.000000 
	C52.353935,1.000000 103.708305,1.000000 155.531189,1.375181 
	C155.805115,2.010060 155.653244,2.445262 155.409882,2.504456 
	C136.794708,7.032525 124.362953,20.126268 113.486435,34.408424 
	C92.409927,62.084385 81.198418,93.326271 81.889717,128.582565 
	C82.200890,144.451767 76.655663,158.299500 64.988388,169.612137 
	C51.365253,182.821198 38.338284,196.650162 24.583643,209.716476 
	C17.576115,216.373291 9.544286,221.952438 1.954918,227.992905 
	C1.758910,228.148911 1.323672,228.004379 1.000000,228.000000 
z"/>
<path fill="#072A75" opacity="1.000000" stroke="none" 
	d="
M1.000000,228.449982 
	C1.323672,228.004379 1.758910,228.148911 1.954918,227.992905 
	C9.544286,221.952438 17.576115,216.373291 24.583643,209.716476 
	C38.338284,196.650162 51.365253,182.821198 64.988388,169.612137 
	C76.655663,158.299500 82.200890,144.451767 81.889717,128.582565 
	C81.198418,93.326271 92.409927,62.084385 113.486435,34.408424 
	C124.362953,20.126268 136.794708,7.032525 155.409882,2.504456 
	C155.653244,2.445262 155.805115,2.010060 155.999847,1.375181 
	C166.020889,1.000000 176.041794,1.000000 186.500397,1.370654 
	C188.046494,2.368984 189.087448,3.201710 190.273926,3.591889 
	C199.744812,6.706413 207.773972,11.946894 214.709061,19.134302 
	C223.598083,28.346727 233.090698,36.994209 241.695663,46.455849 
	C245.940338,51.123123 248.835602,57.034737 252.223465,62.457016 
	C253.950180,65.220619 255.416168,68.147125 257.000000,71.000000 
	C257.000000,81.020897 257.000000,91.041786 257.000000,101.531342 
	C256.388123,102.419388 255.352768,102.738342 255.226013,103.272781 
	C251.662689,118.297638 241.706253,128.978485 230.661636,138.689148 
	C212.855209,154.344955 192.485657,165.714951 169.371094,171.125763 
	C157.553375,173.892120 145.255463,175.164536 133.105591,175.806519 
	C119.439514,176.528610 106.416466,178.292191 95.225151,186.912811 
	C93.917755,187.919907 92.595078,188.933548 91.430199,190.095276 
	C76.341156,205.143616 61.051830,220.001495 46.320053,235.392731 
	C40.219265,241.766617 35.326824,249.297104 29.942429,256.650818 
	C27.299986,257.000000 24.599974,257.000000 21.507977,256.650787 
	C16.447329,251.402969 11.856663,246.426254 7.069665,241.646149 
	C5.282238,239.861298 3.036669,238.535248 0.999999,237.000000 
	C1.000000,234.299988 1.000000,231.599976 1.000000,228.449982 
M157.824295,162.995712 
	C189.194839,156.955109 215.721817,142.066193 236.168884,117.643806 
	C252.037354,98.690201 250.534439,71.202026 233.738617,53.146694 
	C224.331223,43.033852 214.515610,33.261070 204.398575,23.857235 
	C188.694366,9.260104 164.891144,6.662359 146.432144,17.673950 
	C132.245834,26.136703 122.309715,38.872215 113.381332,53.271069 
	C98.817734,76.636208 91.751648,102.136513 92.095932,129.613464 
	C92.303658,146.192322 87.229752,160.664261 76.288712,173.105545 
	C75.673050,173.805634 75.260513,174.684326 75.214172,174.757019 
	C77.845062,177.874481 80.169113,180.628372 82.772644,183.713409 
	C97.657829,169.113434 115.581863,165.081879 135.360977,165.715347 
	C142.540390,165.945267 149.791138,163.947800 157.824295,162.995712 
M34.989918,214.463562 
	C33.114468,215.833618 31.239019,217.203690 29.171303,218.714203 
	C32.872967,222.517578 35.506107,225.223068 37.655338,227.431366 
	C44.979023,220.105316 51.990150,213.091934 58.903358,206.176498 
	C56.707268,203.778137 54.193977,201.033340 51.285355,197.856796 
	C45.711117,203.541824 40.599300,208.755234 34.989918,214.463562 
M13.768651,232.494629 
	C17.551250,236.579605 21.333851,240.664566 25.042721,244.669922 
	C33.654060,238.140732 33.698910,237.623901 26.873753,230.799835 
	C26.402533,230.328674 25.932573,229.856232 25.459898,229.386520 
	C20.866884,224.822449 20.646540,224.820679 15.983965,229.547211 
	C15.285690,230.255066 14.666726,231.041168 13.768651,232.494629 
M63.086678,195.415405 
	C64.389267,196.635162 65.691864,197.854904 66.439926,198.555389 
	C69.717392,195.878174 72.611893,193.513763 75.128265,191.458237 
	C72.068581,188.228806 69.595245,185.618256 67.656204,183.571640 
	C64.701332,186.081985 61.863918,188.492554 58.884464,191.023804 
	C60.311089,192.522736 61.449764,193.719116 63.086678,195.415405 
z"/>
<path fill="#000000" opacity="1.000000" stroke="none" 
	d="
M257.000000,70.531342 
	C255.416168,68.147125 253.950180,65.220619 252.223465,62.457016 
	C248.835602,57.034737 245.940338,51.123123 241.695663,46.455849 
	C233.090698,36.994209 223.598083,28.346727 214.709061,19.134302 
	C207.773972,11.946894 199.744812,6.706413 190.273926,3.591889 
	C189.087448,3.201710 188.046494,2.368984 186.969055,1.370654 
	C210.260178,1.000000 233.520370,1.000000 257.000000,1.000000 
	C257.000000,24.020430 257.000000,47.041557 257.000000,70.531342 
z"/>
<path fill="#000000" opacity="1.000000" stroke="none" 
	d="
M0.999999,237.469040 
	C3.036669,238.535248 5.282238,239.861298 7.069665,241.646149 
	C11.856663,246.426254 16.447329,251.402969 21.057995,256.650787 
	C14.407270,257.000000 7.814542,257.000000 1.000000,257.000000 
	C1.000000,250.647736 1.000000,244.292908 0.999999,237.469040 
z"/>
<path fill="#D94B86" opacity="1.000000" stroke="none" 
	d="
M113.956078,52.895920 
	C122.309715,38.872215 132.245834,26.136703 146.432144,17.673950 
	C164.891144,6.662359 188.694366,9.260104 204.398575,23.857235 
	C214.515610,33.261070 224.331223,43.033852 233.738617,53.146694 
	C250.534439,71.202026 252.037354,98.690201 236.168884,117.643806 
	C215.721817,142.066193 189.194839,156.955109 157.304199,162.666290 
	C154.618332,160.615417 152.369446,158.987152 150.308060,157.148651 
	C147.797516,154.909592 145.444763,152.493622 143.360840,150.054016 
	C148.005463,147.131058 148.845795,144.428055 145.731125,141.281769 
	C135.490570,130.937210 125.047455,120.793182 114.686188,110.153969 
	C113.447311,100.280235 111.329498,90.835907 111.207497,81.365883 
	C111.085403,71.889267 112.957886,62.386963 113.956078,52.895920 
M190.736771,71.028915 
	C193.850937,71.439713 196.157623,70.095840 196.434631,67.070969 
	C196.580551,65.477814 195.315491,62.552944 194.225739,62.311203 
	C192.243942,61.871593 189.075607,62.257805 187.913055,63.603989 
	C185.600082,66.282249 186.777710,69.105476 190.736771,71.028915 
M189.937836,124.155182 
	C186.535126,126.072884 185.577225,129.043839 188.231903,131.754395 
	C189.439423,132.987320 192.691528,133.054276 194.611343,132.421585 
	C195.667374,132.073563 196.885956,128.482132 196.260422,127.577415 
	C195.101868,125.901802 192.643112,125.125160 189.937836,124.155182 
M133.967651,64.913834 
	C131.899414,63.797977 129.817719,61.853539 127.768173,61.886868 
	C126.598015,61.905891 124.418785,65.294579 124.640030,66.897377 
	C124.857536,68.473061 127.390999,70.616150 129.165146,70.899078 
	C132.516418,71.433540 134.163284,69.079994 133.967651,64.913834 
M165.044891,33.226639 
	C163.193527,32.204834 161.397430,30.570648 159.469559,30.396645 
	C158.357681,30.296291 156.372452,32.355515 155.938522,33.792473 
	C154.973587,36.987915 156.584457,39.538685 159.921082,39.838970 
	C163.839600,40.191635 165.575745,37.804752 165.044891,33.226639 
M219.856430,62.432602 
	C217.229965,66.566193 217.986771,70.415665 221.785339,70.855698 
	C223.428696,71.046066 225.915970,70.163841 226.803253,68.908745 
	C227.678070,67.671295 227.750168,64.380440 226.867310,63.708893 
	C225.243210,62.473484 222.660416,62.498367 219.856430,62.432602 
M171.261002,80.811432 
	C171.879654,85.736382 174.819778,88.248199 178.021561,86.239922 
	C179.433838,85.354088 180.863983,83.146324 180.785751,81.615379 
	C180.707916,80.092659 178.725296,77.441818 177.618896,77.462646 
	C175.573257,77.501152 173.557541,79.129257 171.261002,80.811432 
M187.186050,36.954536 
	C189.032806,39.997967 191.717224,41.222904 194.526382,38.826153 
	C195.788651,37.749218 196.730408,34.643234 196.065598,33.379890 
	C195.235870,31.803162 192.542557,30.241692 190.755737,30.350290 
	C187.741791,30.533470 186.527557,33.104324 187.186050,36.954536 
M225.449295,101.787010 
	C228.726273,98.042915 228.605118,94.227440 224.896530,93.146019 
	C223.304153,92.681686 220.692291,93.130348 219.611755,94.221741 
	C218.535141,95.309158 217.905731,98.592148 218.662140,99.365768 
	C220.103958,100.840393 222.671356,101.214493 225.449295,101.787010 
M174.931686,108.312103 
	C173.696274,110.204277 171.802414,111.995674 171.491180,114.029289 
	C171.324753,115.116829 174.041229,117.821510 175.182938,117.674248 
	C177.198273,117.414322 180.140747,115.894661 180.666138,114.252983 
	C181.835190,110.600281 179.547821,108.410378 174.931686,108.312103 
M210.959702,109.774582 
	C208.666290,107.675652 205.964584,107.249458 204.055237,109.694664 
	C202.987045,111.062607 202.505264,113.988747 203.271774,115.378616 
	C204.033554,116.759865 206.902054,118.050323 208.473938,117.701385 
	C212.310242,116.849785 212.968536,113.862305 210.959702,109.774582 
M171.321457,51.962418 
	C173.243805,53.113770 175.143616,55.073071 177.096558,55.127533 
	C178.362259,55.162838 180.952454,52.183834 180.726364,50.969238 
	C180.373779,49.075142 178.389633,46.487858 176.640686,46.060287 
	C173.114029,45.198112 171.254578,47.623165 171.321457,51.962418 
M139.989151,113.454536 
	C141.871506,117.940483 144.872177,119.497307 147.574677,117.012001 
	C148.804871,115.880676 149.949478,113.319916 149.473694,112.010315 
	C148.887177,110.395935 146.302261,108.170647 145.065414,108.439354 
	C143.157715,108.853798 141.661453,111.162216 139.989151,113.454536 
M143.761459,45.912483 
	C140.240723,47.075005 138.917267,49.662651 140.661835,52.745647 
	C141.466995,54.168545 144.405289,55.623707 145.762695,55.181286 
	C147.461914,54.627464 149.948456,51.598984 149.568420,50.597485 
	C148.829895,48.651173 146.329498,47.373425 143.761459,45.912483 
M202.366089,50.478683 
	C202.995270,54.484165 205.290970,56.602955 209.166595,54.968796 
	C210.610077,54.360149 211.966904,51.667709 211.912674,49.971855 
	C211.868240,48.582287 209.905014,46.571217 208.380615,46.057465 
	C205.428970,45.062725 203.391647,46.790241 202.366089,50.478683 
M141.135147,78.678322 
	C138.965088,82.002342 139.612244,85.075790 143.206421,86.239220 
	C144.822113,86.762207 147.735504,85.219658 149.122314,83.737144 
	C149.886673,82.920044 149.259842,79.199043 148.285828,78.703880 
	C146.460037,77.775696 143.926102,78.240463 141.135147,78.678322 
M161.899582,133.435684 
	C162.999924,131.500275 164.639267,129.650925 164.967972,127.592323 
	C165.126831,126.597382 162.935059,124.392189 161.604584,124.208931 
	C159.996964,123.987503 157.606995,124.847794 156.556595,126.087814 
	C153.960968,129.152039 156.210846,132.593536 161.899582,133.435684 
M196.657959,96.779945 
	C195.541962,93.000633 192.753586,91.502907 189.561401,93.364731 
	C188.098312,94.218086 186.902039,97.892593 187.578384,99.383018 
	C188.249390,100.861732 191.457489,101.876694 193.490829,101.780678 
	C194.632172,101.726791 195.647827,99.011185 196.657959,96.779945 
M128.005981,102.172554 
	C131.865479,102.666649 134.185211,101.095085 134.015198,97.086357 
	C133.879547,93.887901 131.620270,92.194412 128.659103,92.832497 
	C127.081535,93.172440 124.764595,95.098732 124.725403,96.368996 
	C124.668442,98.215202 126.367661,100.115601 128.005981,102.172554 
M203.519577,84.996262 
	C207.648621,87.581970 211.481949,86.824181 211.923630,83.060982 
	C212.116745,81.415794 211.265182,78.920311 210.019348,78.039230 
	C208.781357,77.163673 205.483337,77.095070 204.812881,77.979546 
	C203.576080,79.611198 203.600677,82.199005 203.519577,84.996262 
M156.727936,63.115562 
	C154.735107,66.417252 155.205292,69.403618 158.873901,70.665909 
	C160.390610,71.187775 163.391144,70.216553 164.289322,68.928764 
	C165.198868,67.624657 165.041260,64.642921 164.110001,63.193340 
	C162.454697,60.616734 159.716141,60.733810 156.727936,63.115562 
M159.669205,102.226311 
	C161.412033,101.306084 164.419678,100.592651 164.611588,99.418869 
	C164.926926,97.490044 163.978546,94.456230 162.494415,93.422485 
	C161.355118,92.628929 157.729279,93.536224 156.692596,94.854012 
	C154.543884,97.585373 155.531158,100.409393 159.669205,102.226311 
z"/>
<path fill="#BA3C85" opacity="1.000000" stroke="none" 
	d="
M113.668701,53.083496 
	C112.957886,62.386963 111.085403,71.889267 111.207497,81.365883 
	C111.329498,90.835907 113.447311,100.280235 114.332443,110.145302 
	C109.735260,110.370598 108.013359,112.598152 107.901558,116.635735 
	C107.648392,125.778015 107.211159,134.915573 107.002655,144.058563 
	C106.874207,149.690903 108.366783,151.129913 114.109192,151.006912 
	C123.749046,150.800415 133.385742,150.446228 143.023758,150.154175 
	C145.444763,152.493622 147.797516,154.909592 150.308060,157.148651 
	C152.369446,158.987152 154.618332,160.615417 156.896729,162.651749 
	C149.791138,163.947800 142.540390,165.945267 135.360977,165.715347 
	C115.581863,165.081879 97.657829,169.113434 82.772644,183.713409 
	C80.169113,180.628372 77.845062,177.874481 75.214172,174.757019 
	C75.260513,174.684326 75.673050,173.805634 76.288712,173.105545 
	C87.229752,160.664261 92.303658,146.192322 92.095932,129.613464 
	C91.751648,102.136513 98.817734,76.636208 113.668701,53.083496 
z"/>
<path fill="#6763F5" opacity="1.000000" stroke="none" 
	d="
M35.238701,214.216095 
	C40.599300,208.755234 45.711117,203.541824 51.285355,197.856796 
	C54.193977,201.033340 56.707268,203.778137 58.903358,206.176498 
	C51.990150,213.091934 44.979023,220.105316 37.655338,227.431366 
	C35.506107,225.223068 32.872967,222.517578 29.171303,218.714203 
	C31.239019,217.203690 33.114468,215.833618 35.238701,214.216095 
z"/>
<path fill="#6361F0" opacity="1.000000" stroke="none" 
	d="
M13.889865,232.142853 
	C14.666726,231.041168 15.285690,230.255066 15.983965,229.547211 
	C20.646540,224.820679 20.866884,224.822449 25.459898,229.386520 
	C25.932573,229.856232 26.402533,230.328674 26.873753,230.799835 
	C33.698910,237.623901 33.654060,238.140732 25.042721,244.669922 
	C21.333851,240.664566 17.551250,236.579605 13.889865,232.142853 
z"/>
<path fill="#6563F4" opacity="1.000000" stroke="none" 
	d="
M62.837555,195.165466 
	C61.449764,193.719116 60.311089,192.522736 58.884464,191.023804 
	C61.863918,188.492554 64.701332,186.081985 67.656204,183.571640 
	C69.595245,185.618256 72.068581,188.228806 75.128265,191.458237 
	C72.611893,193.513763 69.717392,195.878174 66.439926,198.555389 
	C65.691864,197.854904 64.389267,196.635162 62.837555,195.165466 
z"/>
<path fill="#082B76" opacity="1.000000" stroke="none" 
	d="
M143.360840,150.054001 
	C133.385742,150.446228 123.749046,150.800415 114.109192,151.006912 
	C108.366783,151.129913 106.874207,149.690903 107.002655,144.058563 
	C107.211159,134.915573 107.648392,125.778015 107.901558,116.635735 
	C108.013359,112.598152 109.735260,110.370598 114.328415,110.563446 
	C125.047455,120.793182 135.490570,130.937210 145.731125,141.281769 
	C148.845795,144.428055 148.005463,147.131058 143.360840,150.054001 
M117.806389,140.845184 
	C121.793678,140.845184 125.780968,140.845184 129.709549,140.845184 
	C125.256226,136.480759 121.356735,132.659103 117.150902,128.537231 
	C117.150902,132.344925 117.150902,136.259705 117.806389,140.845184 
z"/>
<path fill="#122C76" opacity="1.000000" stroke="none" 
	d="
M190.343842,70.933304 
	C186.777710,69.105476 185.600082,66.282249 187.913055,63.603989 
	C189.075607,62.257805 192.243942,61.871593 194.225739,62.311203 
	C195.315491,62.552944 196.580551,65.477814 196.434631,67.070969 
	C196.157623,70.095840 193.850937,71.439713 190.343842,70.933304 
z"/>
<path fill="#102C76" opacity="1.000000" stroke="none" 
	d="
M190.331848,124.064644 
	C192.643112,125.125160 195.101868,125.901802 196.260422,127.577415 
	C196.885956,128.482132 195.667374,132.073563 194.611343,132.421585 
	C192.691528,133.054276 189.439423,132.987320 188.231903,131.754395 
	C185.577225,129.043839 186.535126,126.072884 190.331848,124.064644 
z"/>
<path fill="#112C76" opacity="1.000000" stroke="none" 
	d="
M134.026978,65.304703 
	C134.163284,69.079994 132.516418,71.433540 129.165146,70.899078 
	C127.390999,70.616150 124.857536,68.473061 124.640030,66.897377 
	C124.418785,65.294579 126.598015,61.905891 127.768173,61.886868 
	C129.817719,61.853539 131.899414,63.797977 134.026978,65.304703 
z"/>
<path fill="#102C76" opacity="1.000000" stroke="none" 
	d="
M165.130341,33.575066 
	C165.575745,37.804752 163.839600,40.191635 159.921082,39.838970 
	C156.584457,39.538685 154.973587,36.987915 155.938522,33.792473 
	C156.372452,32.355515 158.357681,30.296291 159.469559,30.396645 
	C161.397430,30.570648 163.193527,32.204834 165.130341,33.575066 
z"/>
<path fill="#102C76" opacity="1.000000" stroke="none" 
	d="
M220.166809,62.215286 
	C222.660416,62.498367 225.243210,62.473484 226.867310,63.708893 
	C227.750168,64.380440 227.678070,67.671295 226.803253,68.908745 
	C225.915970,70.163841 223.428696,71.046066 221.785339,70.855698 
	C217.986771,70.415665 217.229965,66.566193 220.166809,62.215286 
z"/>
<path fill="#0F2C76" opacity="1.000000" stroke="none" 
	d="
M171.395172,80.453308 
	C173.557541,79.129257 175.573257,77.501152 177.618896,77.462646 
	C178.725296,77.441818 180.707916,80.092659 180.785751,81.615379 
	C180.863983,83.146324 179.433838,85.354088 178.021561,86.239922 
	C174.819778,88.248199 171.879654,85.736382 171.395172,80.453308 
z"/>
<path fill="#0F2C76" opacity="1.000000" stroke="none" 
	d="
M187.086792,36.568382 
	C186.527557,33.104324 187.741791,30.533470 190.755737,30.350290 
	C192.542557,30.241692 195.235870,31.803162 196.065598,33.379890 
	C196.730408,34.643234 195.788651,37.749218 194.526382,38.826153 
	C191.717224,41.222904 189.032806,39.997967 187.086792,36.568382 
z"/>
<path fill="#0F2C76" opacity="1.000000" stroke="none" 
	d="
M225.110382,101.916245 
	C222.671356,101.214493 220.103958,100.840393 218.662140,99.365768 
	C217.905731,98.592148 218.535141,95.309158 219.611755,94.221741 
	C220.692291,93.130348 223.304153,92.681686 224.896530,93.146019 
	C228.605118,94.227440 228.726273,98.042915 225.110382,101.916245 
z"/>
<path fill="#112C76" opacity="1.000000" stroke="none" 
	d="
M175.304260,108.233994 
	C179.547821,108.410378 181.835190,110.600281 180.666138,114.252983 
	C180.140747,115.894661 177.198273,117.414322 175.182938,117.674248 
	C174.041229,117.821510 171.324753,115.116829 171.491180,114.029289 
	C171.802414,111.995674 173.696274,110.204277 175.304260,108.233994 
z"/>
<path fill="#112C76" opacity="1.000000" stroke="none" 
	d="
M211.213684,110.078690 
	C212.968536,113.862305 212.310242,116.849785 208.473938,117.701385 
	C206.902054,118.050323 204.033554,116.759865 203.271774,115.378616 
	C202.505264,113.988747 202.987045,111.062607 204.055237,109.694664 
	C205.964584,107.249458 208.666290,107.675652 211.213684,110.078690 
z"/>
<path fill="#112C76" opacity="1.000000" stroke="none" 
	d="
M171.241302,51.589893 
	C171.254578,47.623165 173.114029,45.198112 176.640686,46.060287 
	C178.389633,46.487858 180.373779,49.075142 180.726364,50.969238 
	C180.952454,52.183834 178.362259,55.162838 177.096558,55.127533 
	C175.143616,55.073071 173.243805,53.113770 171.241302,51.589893 
z"/>
<path fill="#0F2C76" opacity="1.000000" stroke="none" 
	d="
M139.989899,113.060898 
	C141.661453,111.162216 143.157715,108.853798 145.065414,108.439354 
	C146.302261,108.170647 148.887177,110.395935 149.473694,112.010315 
	C149.949478,113.319916 148.804871,115.880676 147.574677,117.012001 
	C144.872177,119.497307 141.871506,117.940483 139.989899,113.060898 
z"/>
<path fill="#0F2C76" opacity="1.000000" stroke="none" 
	d="
M144.160217,45.865601 
	C146.329498,47.373425 148.829895,48.651173 149.568420,50.597485 
	C149.948456,51.598984 147.461914,54.627464 145.762695,55.181286 
	C144.405289,55.623707 141.466995,54.168545 140.661835,52.745647 
	C138.917267,49.662651 140.240723,47.075005 144.160217,45.865601 
z"/>
<path fill="#0E2B76" opacity="1.000000" stroke="none" 
	d="
M202.432739,50.112320 
	C203.391647,46.790241 205.428970,45.062725 208.380615,46.057465 
	C209.905014,46.571217 211.868240,48.582287 211.912674,49.971855 
	C211.966904,51.667709 210.610077,54.360149 209.166595,54.968796 
	C205.290970,56.602955 202.995270,54.484165 202.432739,50.112320 
z"/>
<path fill="#112C76" opacity="1.000000" stroke="none" 
	d="
M141.410919,78.402092 
	C143.926102,78.240463 146.460037,77.775696 148.285828,78.703880 
	C149.259842,79.199043 149.886673,82.920044 149.122314,83.737144 
	C147.735504,85.219658 144.822113,86.762207 143.206421,86.239220 
	C139.612244,85.075790 138.965088,82.002342 141.410919,78.402092 
z"/>
<path fill="#0E2B76" opacity="1.000000" stroke="none" 
	d="
M161.554993,133.544098 
	C156.210846,132.593536 153.960968,129.152039 156.556595,126.087814 
	C157.606995,124.847794 159.996964,123.987503 161.604584,124.208931 
	C162.935059,124.392189 165.126831,126.597382 164.967972,127.592323 
	C164.639267,129.650925 162.999924,131.500275 161.554993,133.544098 
z"/>
<path fill="#0E2B76" opacity="1.000000" stroke="none" 
	d="
M196.689041,97.137360 
	C195.647827,99.011185 194.632172,101.726791 193.490829,101.780678 
	C191.457489,101.876694 188.249390,100.861732 187.578384,99.383018 
	C186.902039,97.892593 188.098312,94.218086 189.561401,93.364731 
	C192.753586,91.502907 195.541962,93.000633 196.689041,97.137360 
z"/>
<path fill="#0E2B76" opacity="1.000000" stroke="none" 
	d="
M127.661987,102.082718 
	C126.367661,100.115601 124.668442,98.215202 124.725403,96.368996 
	C124.764595,95.098732 127.081535,93.172440 128.659103,92.832497 
	C131.620270,92.194412 133.879547,93.887901 134.015198,97.086357 
	C134.185211,101.095085 131.865479,102.666649 127.661987,102.082718 
z"/>
<path fill="#102C76" opacity="1.000000" stroke="none" 
	d="
M203.309631,84.692345 
	C203.600677,82.199005 203.576080,79.611198 204.812881,77.979546 
	C205.483337,77.095070 208.781357,77.163673 210.019348,78.039230 
	C211.265182,78.920311 212.116745,81.415794 211.923630,83.060982 
	C211.481949,86.824181 207.648621,87.581970 203.309631,84.692345 
z"/>
<path fill="#0E2B76" opacity="1.000000" stroke="none" 
	d="
M156.978607,62.859154 
	C159.716141,60.733810 162.454697,60.616734 164.110001,63.193340 
	C165.041260,64.642921 165.198868,67.624657 164.289322,68.928764 
	C163.391144,70.216553 160.390610,71.187775 158.873901,70.665909 
	C155.205292,69.403618 154.735107,66.417252 156.978607,62.859154 
z"/>
<path fill="#062A75" opacity="1.000000" stroke="none" 
	d="
M159.258759,102.135162 
	C155.531158,100.409393 154.543884,97.585373 156.692596,94.854012 
	C157.729279,93.536224 161.355118,92.628929 162.494415,93.422485 
	C163.978546,94.456230 164.926926,97.490044 164.611588,99.418869 
	C164.419678,100.592651 161.412033,101.306084 159.258759,102.135162 
z"/>
<path fill="#C1CDF2" opacity="1.000000" stroke="none" 
	d="
M117.478645,140.509827 
	C117.150902,136.259705 117.150902,132.344925 117.150902,128.537231 
	C121.356735,132.659103 125.256226,136.480759 129.709549,140.845184 
	C125.780968,140.845184 121.793678,140.845184 117.478645,140.509827 
z"/>
</svg>